<?xml version="1.0" standalone="no"?>
<!DOCTYPE svg PUBLIC "-//W3C//DTD SVG 20010904//EN"
 "http://www.w3.org/TR/2001/REC-SVG-20010904/DTD/svg10.dtd">
<svg version="1.0" xmlns="http://www.w3.org/2000/svg"
 width="270.000000pt" height="270.000000pt" viewBox="0 0 270.000000 270.000000"
 preserveAspectRatio="xMidYMid meet">
<metadata>
Created by potrace 1.14, written by Peter Selinger 2001-2017
</metadata>
<g transform="translate(0.000000,270.000000) scale(0.100000,-0.100000)"
fill="#000000" stroke="none">
<path d="M1115 2604 c-22 -8 -66 -17 -99 -19 -38 -3 -66 -11 -78 -22 -11 -10
-21 -17 -22 -15 -5 12 -91 -37 -139 -79 -10 -9 -33 -25 -52 -35 -19 -10 -35
-26 -35 -35 0 -8 -12 -26 -26 -40 -25 -23 -46 -61 -59 -108 -21 -70 -19 -329
2 -426 8 -38 21 -98 29 -133 8 -34 12 -86 10 -115 -2 -28 -5 -62 -5 -75 -1
-26 -41 -47 -53 -28 -4 6 -8 -5 -8 -24 0 -48 51 -224 61 -209 10 16 24 -34 16
-55 -3 -8 -1 -30 4 -48 6 -18 17 -98 24 -178 8 -81 26 -188 41 -240 14 -52 31
-115 37 -140 6 -25 14 -47 18 -50 22 -16 31 -82 35 -255 3 -104 10 -209 17
-233 l12 -43 355 2 c247 1 357 5 362 12 4 7 22 16 40 22 18 6 37 21 43 33 12
28 29 29 22 2 -3 -11 -1 -18 4 -14 5 3 9 12 9 20 0 8 5 14 11 14 6 0 8 7 5 15
-4 11 3 19 22 26 15 6 29 10 31 9 3 -1 22 28 38 60 4 8 17 23 30 33 13 10 23
29 23 43 0 13 6 24 13 24 15 0 43 53 53 100 3 19 9 37 13 40 3 3 11 19 18 35
6 17 29 77 52 134 41 105 47 139 68 381 4 41 6 133 6 203 0 71 3 125 7 120 5
-4 10 -19 12 -33 5 -43 22 -28 31 28 8 48 7 54 -15 71 -22 18 -24 18 -39 2
-12 -13 -18 -45 -22 -122 -14 -242 -19 -305 -28 -313 -5 -6 -10 -35 -11 -65
-1 -36 -3 -44 -5 -23 -6 45 -19 40 -26 -10 -5 -37 -11 -68 -17 -88 -1 -3 -6 4
-11 15 -8 16 -8 15 -4 -8 4 -18 0 -33 -10 -44 -19 -19 -33 -10 -16 11 7 9 8
17 2 20 -14 9 -41 -4 -41 -20 0 -8 -14 -28 -30 -46 -18 -19 -33 -47 -36 -69
-4 -21 -10 -37 -13 -34 -4 2 -13 -12 -21 -33 -9 -26 -10 -37 -1 -40 18 -6 12
-25 -19 -62 -17 -19 -30 -39 -30 -45 0 -6 -8 -17 -18 -26 -9 -8 -28 -29 -42
-47 -14 -17 -35 -33 -47 -35 -11 -1 -28 -9 -37 -16 -8 -7 -34 -14 -58 -16 -24
-1 -43 -3 -43 -5 0 -1 -11 -3 -25 -5 -111 -17 -113 -17 -123 1 -9 16 -11 16
-22 1 -16 -22 -54 -11 -66 20 -6 18 -14 23 -27 19 -22 -7 -92 20 -92 35 0 6
-9 18 -20 27 -11 10 -30 37 -43 62 -14 26 -31 44 -40 44 -10 -1 -18 11 -22 34
-4 20 -15 42 -26 50 -10 7 -19 22 -19 33 0 10 -3 19 -8 19 -4 0 -16 19 -26 42
-10 23 -29 52 -42 65 -13 12 -24 29 -24 36 0 8 -7 17 -15 21 -8 3 -15 12 -15
19 0 8 -6 20 -14 26 -11 9 -13 7 -13 -13 0 -13 -8 -34 -16 -47 -16 -22 -16
-22 -10 14 3 22 1 42 -6 51 -8 10 -9 16 -1 21 5 3 10 18 10 33 -1 25 -2 26
-14 9 -13 -17 -15 -15 -26 17 -6 20 -18 80 -25 133 -7 54 -19 127 -25 162 -6
35 -9 65 -7 68 3 2 16 -15 30 -39 71 -121 206 -180 330 -144 68 20 76 20 51 1
-10 -8 -14 -15 -8 -15 6 0 10 -8 10 -17 -2 -32 18 -25 29 9 5 19 29 67 52 108
22 41 51 111 63 155 26 93 33 105 69 105 37 0 45 -8 65 -65 68 -183 167 -263
316 -252 80 5 132 30 188 90 47 52 66 92 93 192 10 38 25 75 34 81 8 6 15 24
15 40 0 29 -1 29 -108 54 -198 46 -392 31 -474 -38 -23 -19 -40 -25 -66 -23
-23 2 -32 -1 -28 -8 10 -16 -39 -14 -96 3 -41 13 -46 13 -41 0 3 -9 -14 -2
-45 17 -48 29 -99 41 -285 66 -41 6 -107 -19 -107 -41 0 -14 -67 -49 -73 -38
-10 16 -6 200 4 237 16 59 27 120 40 219 10 77 15 93 40 117 16 16 29 37 29
48 0 14 5 18 21 14 22 -6 139 27 139 39 0 5 8 8 17 8 9 0 25 8 35 17 19 17 20
16 39 -7 10 -14 19 -21 19 -16 0 5 7 2 17 -5 12 -11 17 -11 20 -2 6 17 65 52
83 50 8 -2 20 -6 27 -10 7 -5 16 1 23 13 6 11 15 18 20 15 4 -3 11 1 14 7 4 7
4 -1 1 -19 -4 -27 -1 -31 15 -28 28 5 59 24 41 25 -21 0 -4 13 20 15 18 2 20
-2 15 -27 -7 -35 13 -35 29 0 19 42 60 39 49 -4 -4 -15 -2 -24 6 -24 7 0 10 7
6 16 -4 12 -1 14 14 9 17 -5 20 -2 20 20 0 64 58 113 61 52 1 -17 2 -18 6 -4
6 22 33 23 33 1 0 -14 2 -15 17 -3 14 12 51 14 61 4 2 -2 -4 -16 -14 -32 l-18
-28 25 23 c26 22 49 29 49 14 0 -5 21 -13 48 -18 45 -9 47 -11 56 -51 6 -24
17 -45 25 -48 24 -8 51 -70 72 -168 12 -59 29 -103 48 -133 28 -40 31 -53 37
-159 8 -127 13 -135 62 -87 28 27 29 31 29 132 0 58 4 142 8 188 6 64 3 98
-10 154 -19 75 -84 216 -110 238 -8 7 -15 18 -15 24 0 15 -48 106 -69 130 -21
24 -60 44 -156 78 -73 26 -139 39 -90 18 19 -8 19 -9 -2 -9 -12 -1 -28 -4 -36
-7 -8 -3 -21 1 -28 9 -8 7 -23 19 -34 26 l-20 13 20 -7 c31 -11 65 -14 65 -6
0 12 -79 33 -99 26 -10 -3 -31 1 -47 10 -33 17 -104 20 -104 5 0 -5 5 -10 10
-10 16 0 12 -22 -7 -35 -14 -11 -26 -8 -73 16 -71 36 -124 43 -175 23z m409
-63 c-9 -10 -26 18 -18 30 5 9 9 8 14 -7 4 -10 6 -21 4 -23z m276 -127 c0 -8
-5 -12 -10 -9 -6 4 -8 11 -5 16 9 14 15 11 15 -7z m35 -914 c8 -13 -5 -13 -25
0 -13 8 -13 10 2 10 9 0 20 -4 23 -10z m-1073 -32 c-12 -12 -17 -48 -7 -48 3
0 18 8 32 17 l27 18 -19 -33 c-11 -17 -23 -32 -27 -32 -13 0 -8 -52 7 -85 7
-16 14 -23 15 -15 0 10 9 5 25 -14 20 -25 34 -31 82 -36 60 -7 141 8 168 30 8
7 33 13 55 13 29 2 42 7 46 20 11 35 22 16 13 -24 -18 -80 -70 -144 -141 -173
-166 -70 -384 112 -339 281 12 44 46 93 64 93 8 0 7 -4 -1 -12z m1142 -10 c21
-29 20 -102 -1 -163 -23 -69 -95 -139 -164 -159 -65 -20 -82 -20 -145 -1 -97
29 -185 138 -183 229 0 35 2 38 9 18 5 -12 18 -25 27 -29 10 -3 52 -22 93 -41
58 -27 92 -36 149 -40 66 -4 74 -3 68 12 -4 11 -1 16 10 16 9 0 13 3 9 7 -4 4
-27 6 -51 4 -38 -2 -45 0 -45 16 0 15 -2 16 -10 3 -6 -10 -10 -11 -10 -2 0 6
-9 12 -19 12 -11 0 -23 5 -26 10 -4 7 10 9 42 6 52 -4 73 6 73 35 0 22 16 33
37 25 14 -6 14 -8 -1 -25 -20 -22 -4 -40 18 -22 7 6 15 9 17 7 2 -2 21 -6 42
-9 l38 -5 -6 32 c-4 17 -13 43 -20 59 -13 25 -12 27 10 27 13 0 31 -10 39 -22z
m-118 -4 c18 -14 18 -15 -6 -8 -31 8 -50 24 -29 24 8 0 24 -7 35 -16z m-190
-71 c-7 -7 -26 7 -26 19 0 6 6 6 15 -2 9 -7 13 -15 11 -17z m-682 -9 c9 -24 7
-34 -8 -34 -13 0 -26 20 -26 41 0 15 27 10 34 -7z m-264 -55 c0 -16 -4 -29
-10 -29 -5 0 -10 16 -10 36 0 21 4 33 10 29 6 -3 10 -19 10 -36z m357 5 c-3
-3 -12 -4 -19 -1 -8 3 -5 6 6 6 11 1 17 -2 13 -5z m-117 -34 c0 -5 -7 -7 -15
-4 -8 4 -15 8 -15 10 0 2 7 4 15 4 8 0 15 -4 15 -10z m-80 -554 c0 -8 -4 -18
-10 -21 -5 -3 -10 3 -10 14 0 12 5 21 10 21 6 0 10 -6 10 -14z m850 -616 c0
-13 -25 -30 -42 -30 -15 0 -17 4 -9 18 8 16 51 26 51 12z"/>
<path d="M1270 2616 c0 -2 14 -6 30 -8 17 -3 30 -1 30 4 0 4 -13 8 -30 8 -16
0 -30 -2 -30 -4z"/>
<path d="M1550 2209 c0 -5 5 -7 10 -4 6 3 10 8 10 11 0 2 -4 4 -10 4 -5 0 -10
-5 -10 -11z"/>
<path d="M2142 1527 c-8 -10 -7 -35 6 -100 l18 -87 13 73 c7 40 11 84 9 97 -3
28 -29 38 -46 17z"/>
<path d="M2025 1480 c-8 -25 3 -100 15 -100 4 0 6 17 3 39 -3 21 0 48 6 60 10
17 9 21 -3 21 -8 0 -18 -9 -21 -20z"/>
<path d="M641 1204 c0 -11 3 -14 6 -6 3 7 2 16 -1 19 -3 4 -6 -2 -5 -13z"/>
<path d="M1055 1041 c-3 -5 -2 -12 3 -15 5 -3 9 1 9 9 0 17 -3 19 -12 6z"/>
<path d="M1650 1003 c0 -6 19 -29 42 -51 l42 -42 -30 -1 c-33 -1 -85 0 -128 3
-36 2 -67 30 -55 49 5 8 9 20 9 28 0 20 -94 9 -152 -17 -55 -26 -59 -26 -52
-9 3 8 -4 12 -21 12 -14 -1 -61 4 -106 10 -72 11 -79 10 -73 -4 19 -45 16 -59
-23 -94 -24 -22 -40 -31 -43 -24 -7 16 -50 20 -67 6 -7 -7 -16 -9 -20 -6 -3 4
13 27 36 53 24 25 41 48 38 51 -9 8 -91 -45 -105 -68 -23 -37 -32 -120 -16
-151 8 -16 19 -28 25 -28 6 0 8 -9 4 -20 -5 -15 -3 -18 9 -14 8 3 17 12 20 20
8 20 26 18 82 -11 27 -14 56 -25 64 -26 10 0 11 -2 3 -6 -7 -2 -13 -9 -13 -14
0 -5 12 -3 26 3 21 10 31 9 59 -7 65 -34 273 -23 329 18 18 14 18 15 -2 35
-27 27 -27 34 -3 56 29 26 44 11 37 -35 -3 -22 -5 -39 -3 -39 23 0 77 30 111
61 22 21 46 39 53 39 7 0 16 -15 21 -32 l8 -33 19 29 c14 22 19 46 19 97 -1
61 -4 72 -28 94 -35 32 -116 80 -116 68z m-570 -194 c0 -5 -4 -9 -10 -9 -5 0
-10 7 -10 16 0 8 5 12 10 9 6 -3 10 -10 10 -16z m356 -71 c6 -19 7 -19 16 -5
18 34 49 17 54 -30 2 -23 -8 -28 -48 -25 -10 1 -18 -5 -18 -13 0 -11 -17 -14
-80 -14 -44 0 -80 4 -80 10 0 5 -12 9 -26 9 -14 0 -33 7 -41 16 -13 13 -18 13
-24 2 -7 -11 -11 -10 -19 2 -23 36 0 62 31 34 11 -10 19 -12 19 -6 0 16 27 15
33 0 3 -9 10 -6 22 10 9 12 25 22 35 22 10 0 26 -10 36 -22 l16 -23 -5 23 c-3
12 -1 20 3 17 5 -3 11 -1 15 5 12 19 53 11 61 -12z"/>
<path d="M1210 579 c0 -6 -5 -7 -12 -3 -7 4 -8 3 -4 -4 4 -7 14 -12 22 -12 8
0 13 -4 10 -9 -5 -7 32 -21 68 -25 5 -1 11 -7 14 -14 4 -13 -24 -12 -47 3 -10
5 -16 4 -19 -3 -2 -7 -16 -12 -32 -12 -22 0 -29 -5 -33 -27 -7 -35 14 -53 64
-53 29 0 38 -4 42 -21 6 -23 27 -17 27 7 0 8 7 14 15 14 9 0 12 -6 8 -17 -5
-13 -2 -15 16 -10 20 5 22 3 17 -21 -6 -25 -5 -26 9 -8 12 16 17 17 30 6 13
-11 15 -9 15 13 0 34 46 65 72 48 30 -19 45 -13 52 20 3 17 6 36 6 41 0 6 -28
8 -65 6 -57 -3 -65 -1 -65 15 0 10 4 15 10 12 5 -3 20 3 32 14 l22 21 -31 0
c-17 0 -33 -6 -36 -12 -3 -10 -7 -10 -17 -1 -7 6 -26 9 -44 7 -17 -3 -56 3
-88 15 -32 11 -58 15 -58 10z m193 -62 c4 3 7 1 7 -5 0 -11 -10 -14 -45 -14
-28 0 -35 2 -35 13 0 6 7 9 15 6 8 -4 17 -2 21 4 4 7 10 6 18 0 7 -6 16 -8 19
-4z"/>
<path d="M1980 483 c0 -5 18 -18 39 -30 32 -18 39 -29 45 -63 3 -22 4 -50 1
-63 -3 -12 -7 -33 -9 -47 -7 -44 -52 -163 -84 -223 l-31 -58 269 1 c198 1 270
4 274 13 3 9 5 9 5 0 1 -8 16 -13 41 -13 25 0 40 5 40 13 0 9 2 9 9 -1 5 -9
24 -12 57 -10 l48 3 -29 32 c-44 47 -75 90 -75 102 0 5 -8 16 -18 23 -10 7
-33 32 -51 55 -19 24 -42 45 -53 48 -10 4 -18 13 -18 21 0 23 -161 116 -204
118 -12 1 -44 13 -71 28 -62 32 -185 66 -185 51z m255 -134 c-6 -19 -4 -21 17
-16 28 7 70 -2 62 -14 -2 -5 6 -11 19 -14 13 -4 36 -19 51 -36 15 -16 31 -29
35 -29 5 0 16 -18 26 -39 9 -21 27 -43 39 -49 20 -9 20 -10 2 -18 -13 -5 -23
-2 -31 9 -7 10 -21 17 -31 17 -10 0 -26 5 -34 10 -13 9 -13 11 0 20 13 9 11
13 -10 30 -27 21 -45 26 -35 10 3 -5 0 -10 -7 -10 -15 1 -48 24 -48 34 0 11
-43 45 -57 46 -15 0 -28 44 -18 59 12 20 27 12 20 -10z m138 -206 c-7 -2 -19
-2 -25 0 -7 3 -2 5 12 5 14 0 19 -2 13 -5z"/>
<path d="M690 456 c-41 -12 -96 -32 -122 -44 -26 -12 -70 -27 -97 -33 -28 -6
-51 -15 -51 -20 0 -5 5 -9 11 -9 5 0 7 -5 4 -10 -4 -6 -12 -10 -18 -9 -35 4
-57 -5 -110 -48 -31 -25 -57 -52 -57 -59 0 -6 -16 -15 -35 -18 -19 -4 -37 -11
-40 -16 -9 -14 29 -12 43 2 8 8 12 8 12 1 0 -6 -12 -19 -27 -30 -31 -20 -41
-43 -18 -43 8 0 15 5 15 10 0 6 5 10 10 10 6 0 10 -7 10 -15 0 -8 -6 -15 -14
-15 -7 0 -19 -7 -26 -15 -7 -8 -21 -15 -32 -15 -15 0 -19 -5 -15 -20 3 -13 0
-20 -9 -20 -12 0 -18 12 -16 32 1 3 -5 9 -13 12 -8 3 -15 1 -15 -3 0 -5 -3
-17 -7 -27 -5 -13 -3 -15 7 -9 9 5 11 4 6 -3 -4 -7 -13 -12 -19 -12 -7 0 -21
-7 -31 -15 -18 -13 23 -15 352 -15 l372 0 -37 51 c-35 50 -163 284 -163 300 0
15 61 51 141 84 44 18 77 35 72 38 -4 3 -42 -5 -83 -17z m-217 -190 c4 -9 -3
-16 -19 -19 -27 -5 -26 -5 -18 17 8 20 30 21 37 2z m-213 -90 c0 -8 -6 -16
-14 -19 -10 -4 -12 0 -9 14 6 22 23 26 23 5z"/>
<path d="M2647 183 c-14 -13 -7 -31 18 -47 22 -14 25 -15 25 -1 0 8 -9 15 -21
15 -16 0 -19 4 -14 20 6 20 4 25 -8 13z"/>
<path d="M105 140 c3 -5 17 -10 31 -10 13 0 24 5 24 10 0 6 -14 10 -31 10 -17
0 -28 -4 -24 -10z"/>
<path d="M65 120 c-8 -13 15 -24 27 -12 6 6 4 11 -6 15 -8 3 -18 2 -21 -3z"/>
<path d="M1860 20 c-9 -16 -8 -20 5 -20 8 0 15 9 15 20 0 11 -2 20 -5 20 -2 0
-9 -9 -15 -20z"/>
<path d="M1740 10 c-11 -7 -5 -10 23 -10 20 0 37 5 37 10 0 13 -40 13 -60 0z"/>
</g>
</svg>
